<svg width="1365" height="1024" viewBox="0 0 1365 1024" fill="none" xmlns="http://www.w3.org/2000/svg">
<g clip-path="url(#clip0)">
<path d="M1365 0H0V1024H1365V0Z" fill="url(#paint0_linear)"/>
<path d="M-147.707 246.757C-147.707 300.336 -126.427 351.721 -88.5503 389.607C-50.6732 427.494 0.69925 448.778 54.2656 448.778C107.832 448.778 159.204 427.494 197.082 389.607C234.959 351.721 256.238 300.336 256.238 246.757C256.238 193.177 234.959 141.792 197.082 103.906C159.204 66.0195 107.832 44.7351 54.2656 44.7351C0.69925 44.7351 -50.6732 66.0195 -88.5503 103.906C-126.427 141.792 -147.707 193.177 -147.707 246.757V246.757Z" fill="#1C538E" fill-opacity="0.4"/>
<path d="M177.316 870.855C177.316 958.485 212.119 1042.53 274.068 1104.49C336.016 1166.45 420.037 1201.27 507.646 1201.27C595.255 1201.27 679.276 1166.45 741.225 1104.49C803.174 1042.53 837.976 958.485 837.976 870.855C837.976 783.225 803.174 699.184 741.225 637.22C679.276 575.255 595.255 540.444 507.646 540.444C420.037 540.444 336.016 575.255 274.068 637.22C212.119 699.184 177.316 783.225 177.316 870.855Z" fill="#1C538E" fill-opacity="0.4"/>
<path d="M997.12 430.076L1204.61 518.171L1085.19 222.536L997.12 430.076Z" fill="#1C538E" fill-opacity="0.4"/>
<path d="M763.008 152.39L552.41 130.51L530.276 338.688L740.873 360.568L763.008 152.39Z" fill="#1C538E" fill-opacity="0.4"/>
<path d="M1192.7 819.883C1192.7 849.108 1198.75 878.048 1210.5 905.049C1222.24 932.05 1239.46 956.583 1261.17 977.249C1282.87 997.914 1308.64 1014.31 1337 1025.49C1365.36 1036.68 1395.76 1042.43 1426.46 1042.43C1457.16 1042.43 1487.55 1036.68 1515.91 1025.49C1544.27 1014.31 1570.04 997.914 1591.75 977.249C1613.46 956.583 1630.67 932.05 1642.42 905.049C1654.17 878.048 1660.21 849.108 1660.21 819.883C1660.21 760.859 1635.59 704.253 1591.75 662.517C1547.91 620.78 1488.45 597.333 1426.46 597.333C1364.46 597.333 1305.01 620.78 1261.17 662.517C1217.33 704.253 1192.7 760.859 1192.7 819.883V819.883Z" fill="#1C538E" fill-opacity="0.4"/>
</g>
<defs>
<linearGradient id="paint0_linear" x1="0.0426563" y1="-0.0568661" x2="0.64003" y2="0.739393" gradientUnits="userSpaceOnUse">
<stop stop-color="#0E2A47"/>
<stop offset="1" stop-color="#0F1F34"/>
</linearGradient>
<clipPath id="clip0">
<rect width="1365" height="1024" fill="white"/>
</clipPath>
    </defs></svg>