<svg xmlns="http://www.w3.org/2000/svg" xmlns:xlink="http://www.w3.org/1999/xlink" width="700" height="600" viewBox="0 0 370.273 263.648">
  <defs>
    <linearGradient id="linear-gradient" x1="0.838" y1="-0.151" x2="0.33" y2="0.729" gradientUnits="objectBoundingBox">
      <stop offset="0.01" stop-color="#4d4d4d"/>
      <stop offset="1" stop-color="#fff"/>
    </linearGradient>
    <linearGradient id="linear-gradient-2" x1="49.981" y1="0.068" x2="49.533" y2="0.823" gradientUnits="objectBoundingBox">
      <stop offset="0" stop-color="#78b46a"/>
      <stop offset="0.03" stop-color="#7f3500"/>
      <stop offset="1" stop-color="#fff"/>
    </linearGradient>
    <linearGradient id="linear-gradient-3" x1="0.919" y1="-0.025" x2="0.326" y2="0.709" gradientUnits="objectBoundingBox">
      <stop offset="0" stop-color="#d4a397"/>
      <stop offset="1" stop-color="#fff"/>
    </linearGradient>
  </defs>
  <g id="hero" transform="translate(-14.899 -21.678)">
    <g id="Layer_2" data-name="Layer 2">
      <path id="Path_1" data-name="Path 1" d="M205.45,281.18l171.5-101.36c5.46-3.07,10.14-8.1,4.82-11.4L209.66,69.23c-2.58-1.6-6.5-2.65-9.13-1.12l-180,104.48c-5.46,3.17-6.44,12-1,15.2L182.85,281a22.8,22.8,0,0,0,22.6.18Z" fill="#143458" stroke="#10ceec" stroke-width="2"/>
      <path id="Path_5" data-name="Path 5" d="M315,139.78l41.8,25.91a2.59,2.59,0,0,1-.09,4.46L293.27,206a5.81,5.81,0,0,1-5.8,0l-41.61-24.46c-3-2.48-2.18-6.16,0-7.36l63.07-34.48a5.9,5.9,0,0,1,6.07.08Z" fill="#68e1fd"/>
      <path id="Path_6" data-name="Path 6" d="M315,138l41.8,25.91a2.59,2.59,0,0,1-.09,4.46l-63.43,35.88a5.81,5.81,0,0,1-5.8,0l-41.61-24.46a3.22,3.22,0,0,1,0-5.57l63.07-36.26A5.9,5.9,0,0,1,315,138Z" fill="#fff"/>
      <path id="Path_7" data-name="Path 7" d="M312.22,139.4l42.01,26.44L291.4,201.79,248.05,176.3Z" fill="#606060"/>
      <ellipse id="Ellipse_1" data-name="Ellipse 1" cx="1.49" cy="0.7" rx="1.49" ry="0.7" transform="translate(265.48 189.4)" fill="#383097"/>
      <path id="Path_8" data-name="Path 8" d="M313.77,183.22s5.47-10.17,5.5-10.22l-.94-.47-11.62,6.71Z" fill="url(#linear-gradient)"/>
      <path id="Path_9" data-name="Path 9" d="M362.9,145.71a.57.57,0,0,1,0-.22,6.08,6.08,0,0,0-1.82-.61l-39,23.28s-2.34,1.83,2,4.3l39.59-23.53A8.31,8.31,0,0,0,362.9,145.71Z" fill="#ccc"/>
      <path id="Path_10" data-name="Path 10" d="M322,168.15s-4.54,5.08-4.62,5.41,6.57-1.11,6.57-1.11" fill="#ccc"/>
      <ellipse id="Ellipse_2" data-name="Ellipse 2" cx="1.5" cy="2.39" rx="1.5" ry="2.39" transform="translate(359.84 145.549) rotate(-30)" fill="#f2f2f2"/>
      <path id="Path_11" data-name="Path 11" d="M165.81,135.68l16.38,7.89a3.77,3.77,0,0,1,.26,6.65l-38.83,22.65a3.77,3.77,0,0,1-5.07-1.22L129.12,157" fill="#56403d"/>
      <path id="Path_12" data-name="Path 12" d="M76.68,97.74,207.34,22.47a5.89,5.89,0,0,1,8.84,5.11v78.3a4.9,4.9,0,0,1-2.45,4.24L74.46,190.51a3.16,3.16,0,0,1-4.74-2.74v-78a13.91,13.91,0,0,1,6.96-12.03Z" fill="#437daf"/>
      <path id="Path_13" data-name="Path 13" d="M207.32,28.39,80.64,101.28a8.88,8.88,0,0,0-4.45,7.7v58.7a3.21,3.21,0,0,0,4.8,2.78l129.2-74.14a3.16,3.16,0,0,0,1.59-2.74V31a3,3,0,0,0-4.46-2.61Z" fill="#d8e5ff"/>
      <ellipse id="Ellipse_3" data-name="Ellipse 3" cx="3.15" cy="2.75" rx="3.15" ry="2.75" transform="translate(151.307 138.56) rotate(-79.1)" fill="#ab643c"/>
      <path id="Path_14" data-name="Path 14" d="M213.76,169.53l34.18,19.53a2.35,2.35,0,0,1,0,4.07L153,247.75a7.58,7.58,0,0,1-7.57,0l-32-18.47a2.45,2.45,0,0,1,0-4.24l96.06-55.49A4.25,4.25,0,0,1,213.76,169.53Z" fill="#974c26"/>
      <path id="Path_15" data-name="Path 15" d="M162.11,200.67l9.76,5.78-7.24,4.21c-2-1.19-7.9-4.65-9.79-5.76Z" fill="#fff"/>
      <path id="Path_16" data-name="Path 16" d="M172.8,194.46l9.76,5.78-9.17,5.33c-1.6-.93-7.51-4.42-9.79-5.76Z" fill="#fff"/>
      <path id="Path_17" data-name="Path 17" d="M211.64,171.91l9.91,5.69-8.82,5.12c-1.4-.81-7.38-4.34-9.79-5.76Z" fill="#fff"/>
      <path id="Path_18" data-name="Path 18" d="M190.76,184l9.76,5.78-7.24,4.2c-1.71-1-7.6-4.47-9.79-5.76Z" fill="#fff"/>
      <path id="Path_19" data-name="Path 19" d="M201.45,177.82l9.76,5.78L202,188.93c-1.08-.62-7.22-4.24-9.79-5.76Z" fill="#fff"/>
      <path id="Path_20" data-name="Path 20" d="M153.35,205.76l9.76,5.78-6.93,4c-2.08-1.22-7.94-4.67-9.79-5.76Z" fill="#fff"/>
      <path id="Path_21" data-name="Path 21" d="M182,189.12l9.76,5.78-7.67,4.45c-1.8-1-7.67-4.51-9.79-5.76Z" fill="#fff"/>
      <path id="Path_22" data-name="Path 22" d="M144.9,210.67l9.76,5.78-9.17,5.33c-1.92-1.12-7.77-4.57-9.79-5.76Z" fill="#fff"/>
      <path id="Path_23" data-name="Path 23" d="M134.2,216.88l9.76,5.78-16.45,9.55-9.92-5.69Z" fill="#fff"/>
      <path id="Path_24" data-name="Path 24" d="M222.82,179.29l9.91,5.69-12.81,7.44c-1.68-1-7.57-4.45-9.79-5.76Z" fill="#fff"/>
      <path id="Path_25" data-name="Path 25" d="M197.94,193.73l9.76,5.78-7.24,4.21c-1.94-1.13-7.79-4.58-9.79-5.76Z" fill="#fff"/>
      <path id="Path_26" data-name="Path 26" d="M180,204.16l9.76,5.78-9.17,5.33c-1.84-1.07-7.7-4.53-9.79-5.76Z" fill="#fff"/>
      <path id="Path_27" data-name="Path 27" d="M189.18,198.82l9.76,5.78-7.67,4.45c-2-1.17-7.87-4.63-9.79-5.76Z" fill="#fff"/>
      <path id="Path_28" data-name="Path 28" d="M169.29,210.37l9.76,5.78-7.24,4.21c-2.24-1.31-8.13-4.79-9.79-5.76Z" fill="#fff"/>
      <path id="Path_29" data-name="Path 29" d="M160.53,215.46l9.76,5.78-6.93,4c-2.28-1.33-8.18-4.82-9.79-5.76Z" fill="#fff"/>
      <path id="Path_30" data-name="Path 30" d="M208.63,187.52l9.76,5.78-9.17,5.32c-1.45-.84-7.42-4.36-9.79-5.76Z" fill="#fff"/>
      <path id="Path_31" data-name="Path 31" d="M152.08,220.37l9.76,5.78-9.17,5.33c-2.12-1.24-8-4.7-9.79-5.76Z" fill="#fff"/>
      <path id="Path_32" data-name="Path 32" d="M151.14,232.36l-12.46,7.23-9.91-5.69,12.61-7.33Z" fill="#fff"/>
      <path id="Path_33" data-name="Path 33" d="M158.44,231.37l7.26,4.31-8.42,4.87-7.37-4.23Z" fill="#fff"/>
      <path id="Path_34" data-name="Path 34" d="M155.54,241.56l-7.16,4.15L141,241.49l7.29-4.23Z" fill="#fff"/>
      <path id="Path_35" data-name="Path 35" d="M235.04,186.88l7.6,4.21-8.62,5-7.46-4.29Z" fill="#fff"/>
      <path id="Path_36" data-name="Path 36" d="M224.95,192.74l7.33,4.35-9.2,5.34-7.45-4.28Z" fill="#fff"/>
      <path id="Path_37" data-name="Path 37" d="M214.01,199.09l7.32,4.35-53.88,31.22-7.39-4.24Z" fill="#fff"/>
      <path id="Path_38" data-name="Path 38" d="M239.06,127.33l16.26-8.74" fill="url(#linear-gradient-2)"/>
      <path id="Path_52" data-name="Path 52" d="M12.95,0C20.1,0,25.9,4.083,25.9,9.12s-5.8,9.12-12.95,9.12S0,14.157,0,9.12,5.8,0,12.95,0Z" transform="translate(236.46 101.03)" fill="#437daf"/>
      <path id="Path_53" data-name="Path 53" d="M9.7,0c5.357,0,9.7,1.777,9.7,3.97S15.057,7.94,9.7,7.94,0,6.163,0,3.97,4.343,0,9.7,0Z" transform="translate(239.72 100.79)" fill="#a85d37"/>
      <path id="Path_39" data-name="Path 39" d="M250.06,104.85c.76-1.07,1.53-2.19,2.33-3.45,1-1.61,2-3.25,2.87-4.95a32.669,32.669,0,0,0,2.09-4.68,39.122,39.122,0,0,0,1.53-5.37c.1-.48.18-1,.27-1.44v-.59c.09-1,.15-2,.16-2.94a24.75,24.75,0,0,0-1.93-9.91,42.74,42.74,0,0,0-6.92,16.93q-.1.54-.19,1.09s-.1.66-.14.93l-.1.91q-.07.69-.13,1.39c-.14,1.79-.21,3.58-.2,5.37C249.78,100.38,249.88,102.62,250.06,104.85Zm4.12-26.76q.35-.4.73-.78h0a1.61,1.61,0,0,0,0,.7,2.22,2.22,0,0,0-.72.08Z" fill="#999a1c"/>
      <path id="Path_40" data-name="Path 40" d="M250.31,105c.07-1.31.1-2.67.09-4.16,0-1.91-.09-3.81-.26-5.71a32.672,32.672,0,0,0-.77-5.07,39.12,39.12,0,0,0-1.61-5.35c-.18-.46-.36-.91-.56-1.36-.09-.21-.07-.19-.05-.16l-.2-.37c-.46-.87-.93-1.73-1.45-2.56a24.75,24.75,0,0,0-7-7.3,42.74,42.74,0,0,0,3.33,18q.21.51.43,1l.39.86.41.83q.31.62.64,1.24,1.275,2.37,2.73,4.63C247.65,101.41,248.95,103.23,250.31,105Zm-11-24.74q.08-.53.19-1h0a1.61,1.61,0,0,0,.34.61,2.22,2.22,0,0,0-.53.4Z" fill="#999a1c"/>
      <path id="Path_41" data-name="Path 41" d="M250.37,105.7c-.39-.73-.81-1.47-1.29-2.28-.62-1-1.28-2-2-3A20.549,20.549,0,0,0,245,97.94a24.612,24.612,0,0,0-2.6-2.37l-.7-.57c-.12-.08-.1-.08-.08-.07l-.23-.14c-.53-.32-1.06-.63-1.61-.91a15.57,15.57,0,0,0-6.12-1.69,26.88,26.88,0,0,0,7.6,8.63l.56.41.48.34.49.31.75.46q1.45.87,3,1.62A38.974,38.974,0,0,0,250.37,105.7Zm-13.92-9.8q-.13-.31-.24-.63h0a1,1,0,0,0,.38.22,1.4,1.4,0,0,0-.14.41Z" fill="#999a1c"/>
      <path id="Path_42" data-name="Path 42" d="M250.06,104.85c.76-1.07,1.53-2.19,2.33-3.45,1-1.61,2-3.25,2.87-4.95a32.669,32.669,0,0,0,2.09-4.68,39.122,39.122,0,0,0,1.53-5.37c.1-.48.18-1,.27-1.44v-.59c.09-1,.15-2,.16-2.94a24.75,24.75,0,0,0-1.93-9.91,42.74,42.74,0,0,0-6.92,16.93q-.1.54-.19,1.09s-.1.66-.14.93l-.1.91q-.07.69-.13,1.39c-.14,1.79-.21,3.58-.2,5.37C249.78,100.38,249.88,102.62,250.06,104.85Zm4.12-26.76q.35-.4.73-.78h0a1.61,1.61,0,0,0,0,.7,2.22,2.22,0,0,0-.72.08Z" fill="#999a1c"/>
      <path id="Path_43" data-name="Path 43" d="M250.31,105c.07-1.31.1-2.67.09-4.16,0-1.91-.09-3.81-.26-5.71a32.672,32.672,0,0,0-.77-5.07,39.12,39.12,0,0,0-1.61-5.35c-.18-.46-.36-.91-.56-1.36-.09-.21-.07-.19-.05-.16l-.2-.37c-.46-.87-.93-1.73-1.45-2.56a24.75,24.75,0,0,0-7-7.3,42.74,42.74,0,0,0,3.33,18q.21.51.43,1l.39.86.41.83q.31.62.64,1.24,1.275,2.37,2.73,4.63C247.65,101.41,248.95,103.23,250.31,105Zm-11-24.74q.08-.53.19-1h0a1.61,1.61,0,0,0,.34.61,2.22,2.22,0,0,0-.53.4Z" fill="#999a1c"/>
      <path id="Path_44" data-name="Path 44" d="M250.37,105.7c-.39-.73-.81-1.47-1.29-2.28-.62-1-1.28-2-2-3A20.549,20.549,0,0,0,245,97.94a24.612,24.612,0,0,0-2.6-2.37l-.7-.57c-.12-.08-.1-.08-.08-.07l-.23-.14c-.53-.32-1.06-.63-1.61-.91a15.57,15.57,0,0,0-6.12-1.69,26.88,26.88,0,0,0,7.6,8.63l.56.41.48.34.49.31.75.46q1.45.87,3,1.62A38.974,38.974,0,0,0,250.37,105.7Zm-13.92-9.8q-.13-.31-.24-.63h0a1,1,0,0,0,.38.22,1.4,1.4,0,0,0-.14.41Z" fill="#999a1c"/>
      <path id="Path_45" data-name="Path 45" d="M103.72,144.78l46.19-24.57L122.19,93.74Z" fill="#e88831"/>
      <circle id="Ellipse_6" data-name="Ellipse 6" cx="17.58" cy="17.58" r="17.58" transform="translate(167.32 53.56)" fill="#7acc92"/>
      <path id="Path_46" data-name="Path 46" d="M94,110.23c-2.8-1.6-5.32,2.72-2.52,4.32,8.69,5,1.73,15.88-4.74,19-2.9,1.39-.37,5.71,2.52,4.32C99.36,133,106,117,94,110.23Z" fill="#56403d"/>
      <path id="Path_47" data-name="Path 47" d="M174,98c-2.66-12.43-19.39-4.8-16.48,6.47a7.862,7.862,0,0,0,11.18,5.3A11,11,0,0,0,174,98Zm-4.82,3.12a5.53,5.53,0,0,1-3.07,4.34c-3.82,1.46-3.73-3.39-2.79-5.71,1.68-4.3,6.68-3.75,5.84,1.41Z" fill="#56403d"/>
      <path id="Path_48" data-name="Path 48" d="M166.26,257.73a4,4,0,0,1,2.26-3l7.25-4.18,11.2-6.49,13.38-7.75,14.24-8.24,13.77-8,12-6.93,8.85-5.12,4.65-2.69c0,.1.16.1.26.07a3.31,3.31,0,0,1,4,4c-.54,2.1-2.33,3.95-4,5.23a160.8,160.8,0,0,1-16.92,10.62v-2.09c3.94-2.16,12.44-7,16-10.7l-1.7,1-4.68,2.74-7.05,4.12-8.8,5.14L221,231.33l-10.46,6.11-10.36,6.05-9.64,5.64L182.27,254l-6.37,3.72c-1.94,1.14-4.05,2.68-6.31,3.12a3.11,3.11,0,0,1-3.33-3.11Z" fill="#437daf"/>
      <path id="Path_49" data-name="Path 49" d="M229.24,174.21l13.89-9.07" fill="url(#linear-gradient-3)"/>
      <path id="Path_50" data-name="Path 50" d="M221.51,144.75v6.99l21.59,13.37,25.92-15.84v-5.96" fill="#d4d4d4"/>
      <path id="Path_51" data-name="Path 51" d="M269.02,143.31l-22.01-13.17-25.5,14.61,22.01,13.37Z" fill="#d8e5ff"/>
    </g>
  </g>
</svg>
